<?xml version="1.0" encoding="UTF-8" standalone="no"?>
<!-- Created with Inkscape (http://www.inkscape.org/) -->

<svg
   width="136.63513mm"
   height="151.87611mm"
   viewBox="0 0 136.63513 151.87611"
   version="1.1"
   id="svg1"
   xml:space="preserve"
   sodipodi:docname="droplet.svg"
   inkscape:version="1.3.2 (091e20ef0f, 2023-11-25, custom)"
   xmlns:inkscape="http://www.inkscape.org/namespaces/inkscape"
   xmlns:sodipodi="http://sodipodi.sourceforge.net/DTD/sodipodi-0.dtd"
   xmlns="http://www.w3.org/2000/svg"
   xmlns:svg="http://www.w3.org/2000/svg"><sodipodi:namedview
     id="namedview1"
     pagecolor="#ffffff"
     bordercolor="#000000"
     borderopacity="0.25"
     inkscape:showpageshadow="2"
     inkscape:pageopacity="0.0"
     inkscape:pagecheckerboard="0"
     inkscape:deskcolor="#d1d1d1"
     inkscape:document-units="mm"
     inkscape:zoom="0.52902455"
     inkscape:cx="342.13913"
     inkscape:cy="-37.805429"
     inkscape:window-width="1920"
     inkscape:window-height="1080"
     inkscape:window-x="0"
     inkscape:window-y="0"
     inkscape:window-maximized="1"
     inkscape:current-layer="layer1" /><defs
     id="defs1" /><g
     id="layer1"
     transform="matrix(0.90060314,0,0,1,-21.811255,-45.69048)"><path
       id="path2"
       style="fill:#64b7dd;fill-opacity:1;stroke:none;stroke-width:0.568037"
       d="M 119.23659,63.763279 C 107.12415,77.89541 93.604907,93.27081 84.953874,110.50823 c 0.404736,-0.22659 0.875913,-0.57828 2.235518,-1.49242 4.016593,-2.70058 8.08636,-4.1739 12.328051,-4.1739 0.637837,0 1.225747,0.048 1.812627,0.13694 0.58687,0.0889 0.9556,0.0104 2.17986,0.66559 3.29417,1.76299 4.81162,6.15832 3.19146,9.57255 -0.53081,1.11859 -1.67236,2.50804 -3.02563,3.21685 -1.35327,0.70882 -2.57028,0.88267 -3.87314,1.02888 -2.095672,0.23517 -2.179172,0.26802 -4.584072,1.86139 -4.639254,3.07372 -8.46166,4.35714 -13.253588,4.37544 -1.051907,0.004 -2.034053,-0.0878 -2.987766,-0.22944 -0.620209,2.09322 -1.156559,4.21207 -1.598028,6.35826 0.540913,-0.41631 1.144419,-0.78471 1.725985,-1.00614 1.193595,-0.45445 2.216966,-0.59447 3.584516,-0.78341 2.445994,-0.33792 1.463245,0.0231 4.847446,-2.20865 4.297527,-2.83407 7.564983,-3.80802 12.730287,-3.79512 h 0.002 c 1.9138,0.005 3.0286,-0.006 4.25758,0.16227 1.22898,0.16859 2.28649,0.55766 3.29705,0.96273 1.74398,0.69905 3.6453,1.79646 5.30246,2.92592 2.99362,2.04031 2.44516,1.87389 5.26001,1.87689 2.55294,0.003 2.16715,0.11689 5.11139,-1.87328 4.1998,-2.83884 8.06287,-4.19716 12.40781,-4.19716 0.91061,0 1.70515,-0.0893 3.0199,0.3421 1.31475,0.43135 2.21945,1.30896 2.70317,1.79266 0.50224,0.50225 1.16837,1.19532 1.63245,2.28513 0.46405,1.08981 0.50207,2.10466 0.50207,2.80706 0,1.41448 -0.8581,3.78287 -1.81664,4.84364 -0.49812,0.55125 -1.65599,1.48928 -2.73415,1.87688 -1.07816,0.3876 -1.8822,0.47692 -3.07613,0.65423 -2.50263,0.37166 -2.22328,0.27002 -4.94901,2.1053 -2.69045,1.81151 -4.71057,2.77838 -7.36929,3.50779 -1.96756,0.53977 -3.72918,0.6975 -6.42367,0.57258 -4.75491,-0.22046 -8.60954,-1.64657 -12.84791,-4.68757 -1.93529,-1.38855 -1.99144,-1.40612 -4.42169,-1.40612 -2.478712,0 -2.620663,0.0456 -4.625381,1.52136 -1.190125,0.87612 -2.662622,1.77515 -3.990192,2.44119 -2.023356,1.01511 -4.203597,1.64412 -6.310631,1.97662 -2.107034,0.33251 -3.864633,0.81394 -6.554495,-0.56844 -0.990357,-0.50896 -1.819723,-1.19821 -2.468479,-2.00194 -0.06261,1.49904 -0.08624,2.99442 -0.02697,4.53409 0.0056,0.0944 0.01505,0.1897 0.02066,0.28422 0.286232,0.17891 0.579541,0.34666 0.857828,0.52968 2.710587,1.78275 2.514415,1.72576 5.075818,1.71876 2.168493,-0.006 2.079723,0.0232 4.814739,-1.82418 3.795599,-2.56376 6.685246,-3.71274 10.644528,-4.21473 3.441955,-0.43639 7.106525,-0.0424 10.326065,1.16944 1.67246,0.62951 3.56382,1.66573 5.34952,2.74454 3.16517,1.91221 4.03697,2.13061 4.94327,2.13061 2.31378,0 4.55085,0.75922 6.21137,2.42001 1.66051,1.66078 2.50628,4.49062 1.76959,6.94945 -0.46753,1.56047 -0.84544,2.28056 -2.14084,3.49384 -0.47605,0.4459 -1.90249,1.38535 -3.06236,1.60766 -1.15987,0.22229 -1.89148,0.16519 -3.10195,0.15399 -3.89381,-0.0359 -7.30078,-1.21691 -11.7554,-3.90829 -3.44085,-2.07888 -4.13709,-2.28586 -6.04726,-2.27686 -1.415374,0.007 -2.280376,0.25292 -3.532875,1.02888 -0.638291,0.39545 -2.125146,1.32154 -3.279256,2.04328 -3.004475,1.87893 -6.201381,2.91589 -9.749976,3.16777 -0.688726,0.0489 -1.366438,0.0339 -2.042147,0.008 0.92017,1.38736 1.930292,2.72371 3.022194,3.99356 0.531047,-0.24712 1.146036,-0.645 2.365195,-1.44281 3.264379,-2.13618 5.968932,-3.43723 8.865754,-4.05092 1.989314,-0.42143 3.778622,-0.64256 5.706991,-0.25579 1.92837,0.38677 3.93455,1.75718 4.95303,3.42769 0.61428,1.00756 1.1534,2.36664 1.1212,3.87108 -0.0322,1.50445 -0.63073,2.84679 -1.29105,3.82664 -1.29082,1.91547 -4.31702,3.41243 -6.601542,3.41943 -0.77638,0.002 -1.609542,0.21694 -3.370489,1.24231 1.952022,1.23225 3.840451,2.24457 5.546901,2.99413 8.67228,3.80935 23.01807,5.15856 35.18243,-1.3038 5.90469,-3.13687 7.65766,-4.42854 12.732,-8.94932 5.07435,-4.52077 7.05466,-8.00746 9.54571,-12.25145 2.49105,-4.24398 3.68414,-11.82315 3.10023,-20.77599 -0.57818,-8.86531 -2.76586,-12.77467 -4.61735,-18.35392 -2.13149,-6.42296 -8.32115,-16.84786 -13.93297,-25.656835 C 138.17732,84.65726 119.2363,63.763529 119.2363,63.763529 Z" /><g
       id="path1" /><path
       style="display:inline;fill:#64b7dd;fill-opacity:1;stroke:none;stroke-width:2.10748;stroke-dasharray:none;stroke-opacity:1"
       d="m 114.67762,197.43828 c -7.44467,-0.62192 -14.32658,-2.54592 -20.976666,-5.86452 -5.430695,-2.71009 -9.797136,-5.88405 -14.606273,-10.61729 -2.035047,-2.00293 -3.976901,-3.66453 -4.7625,-4.07515 -0.729541,-0.38132 -2.202834,-1.28456 -3.273985,-2.00721 -2.907592,-1.96157 -4.029526,-2.37822 -6.78034,-2.51801 -3.038607,-0.15441 -4.696513,0.37297 -7.959742,2.53203 -4.383318,2.90014 -6.410063,3.59082 -10.564455,3.60016 -4.515988,0.0102 -6.33664,-0.57249 -10.915319,-3.49317 -3.454945,-2.20386 -3.900625,-2.38897 -6.436442,-2.67335 -2.354751,-0.26408 -3.002175,-0.56176 -3.695784,-1.6993 -0.656257,-1.07629 -0.650579,-1.94195 0.01995,-3.04175 0.757034,-1.24168 2.09198,-1.73709 4.08579,-1.51625 3.496964,0.38732 5.779121,1.28315 9.378416,3.68134 3.304726,2.20192 4.603739,2.61695 7.828805,2.50129 2.952502,-0.10589 3.803905,-0.43501 7.407499,-2.86345 2.364019,-1.5931 3.582701,-2.20254 5.55625,-2.7786 1.725482,-0.50364 5.703877,-0.66614 7.976606,-0.3258 l 1.362022,0.20397 -1.408157,-3.22635 c -0.774487,-1.77449 -1.851811,-4.74802 -2.394053,-6.60784 -0.914537,-3.13674 -1.038058,-3.39295 -1.706576,-3.53978 -1.727384,-0.37939 -2.644389,-2.80166 -1.714392,-4.52856 0.26149,-0.48556 0.666393,-0.9434 0.899784,-1.01742 0.376788,-0.11951 0.416809,-0.8689 0.357079,-6.68629 l -0.06727,-6.55169 -0.72648,0.0931 c -1.324097,0.16968 -3.097458,0.98521 -5.14127,2.36436 -4.07535,2.75002 -7.012116,3.76026 -10.931044,3.76026 -3.932965,0 -6.932003,-1.0481 -11.030368,-3.85489 -2.288447,-1.56726 -4.834887,-2.49511 -6.847671,-2.49511 -2.312758,0 -3.851296,-1.99529 -3.158108,-4.09568 0.469136,-1.42149 1.478783,-1.98974 3.535322,-1.98974 0.952639,0 2.363009,0.13161 3.134156,0.29246 1.759085,0.36692 5.18264,2.00712 7.090627,3.39707 3.022798,2.20207 5.711697,2.92342 8.997142,2.41366 2.122975,-0.32939 3.245172,-0.83645 5.988787,-2.70601 2.750152,-1.87401 5.077036,-2.84791 7.593574,-3.17823 1.187472,-0.15587 2.28409,-0.31557 2.436929,-0.35488 0.152839,-0.0393 0.596762,-1.36427 0.986496,-2.94434 0.389734,-1.58007 1.180525,-4.3016 1.757315,-6.04785 0.647865,-1.96144 0.954639,-3.26987 0.802599,-3.4232 -0.13536,-0.13651 -1.467921,-0.25491 -2.961246,-0.26312 -2.472888,-0.0136 -2.868538,0.0557 -4.434474,0.77683 -0.945636,0.43547 -2.239783,1.18902 -2.875883,1.67457 -3.283998,2.50673 -6.932935,3.74846 -11.015197,3.74846 -4.16324,0 -7.467117,-1.18895 -11.583669,-4.16855 -1.710199,-1.23786 -3.368813,-1.8251 -5.792298,-2.05076 -1.763906,-0.16425 -2.135918,-0.29247 -2.836802,-0.97771 -1.116042,-1.09114 -1.296963,-2.27779 -0.54993,-3.60695 0.323887,-0.57628 0.877112,-1.17911 1.229388,-1.33962 1.395113,-0.63565 5.493315,-0.12442 8.126608,1.01376 0.711313,0.30745 2.458439,1.33219 3.882501,2.27718 3.454452,2.29236 4.28639,2.57866 7.524202,2.58939 3.155154,0.0104 4.078735,-0.28924 7.118111,-2.30977 2.927555,-1.94619 5.032389,-2.97669 7.052642,-3.45287 2.655904,-0.62601 6.707179,-0.50754 9.285588,0.27153 0.343679,0.10384 0.868772,-0.75719 2.446708,-4.01205 3.556999,-7.33714 8.982145,-16.38339 13.790392,-22.99504 9.588418,-13.184682 16.857426,-21.410449 26.747266,-31.26948 7.07661,-7.054565 7.07634,-7.054489 11.18866,-3.154556 10.44902,9.909382 23.18974,24.569026 30.2629,34.820906 1.88338,2.72978 6.10856,9.12943 6.81265,10.31875 4.39561,7.42486 7.44082,13.42149 9.87554,19.44688 2.56006,6.33557 4.49533,13.21716 5.38555,19.15034 0.65119,4.34003 0.63496,13.361 -0.0312,17.36216 -4.0646,24.41208 -22.74937,43.29703 -46.8556,47.3576 -4.17844,0.70383 -10.09689,0.99107 -13.89063,0.67414 z m 10.73245,-6.49021 c 6.07391,-0.82898 10.53108,-2.16714 15.85818,-4.76106 13.63494,-6.63924 23.4888,-18.88574 27.09054,-33.66843 1.13135,-4.64342 1.44641,-7.99917 1.27743,-13.60603 -0.27453,-9.10879 -2.2631,-16.87566 -7.04921,-27.53257 -7.56918,-16.85379 -21.75988,-36.39591 -39.40763,-54.268527 l -4.13613,-4.188837 -3.70417,3.804095 c -9.06921,9.313881 -15.859845,17.276684 -21.812284,25.211079 -6.79972,9.06378 -11.773112,16.98124 -16.064663,25.57435 -1.910553,3.82557 -2.475204,5.18647 -2.281,5.49759 0.447534,0.71696 3.046147,1.87285 4.901193,2.1801 1.33603,0.22129 2.257598,0.21758 3.664447,-0.0148 2.190094,-0.36169 2.772242,-0.62905 5.795428,-2.6617 3.569854,-2.40021 6.616857,-3.45579 9.975387,-3.45579 0.790062,0 1.691622,0.13654 2.003452,0.30343 1.51664,0.81168 2.09597,2.52155 1.37156,4.04813 -0.56965,1.20046 -1.36896,1.61912 -3.560812,1.86509 -2.50336,0.28092 -3.81741,0.79846 -6.441366,2.53696 -4.360263,2.88888 -6.646174,3.65611 -10.941969,3.67251 -3.028441,0.0116 -4.694517,-0.3302 -7.194034,-1.47574 -1.07552,-0.49292 -2.043562,-0.89621 -2.151204,-0.89621 -0.496741,0 -2.759044,8.38466 -3.605114,13.36146 -0.482571,2.8386 -0.673068,12.36944 -0.283823,14.20016 0.184535,0.86792 0.382335,1.05331 1.863256,1.74631 0.911242,0.42643 2.771288,1.50831 4.133435,2.40419 2.972381,1.95493 4.403196,2.42116 7.404775,2.41285 2.706057,-0.008 4.175101,-0.53003 7.161874,-2.54746 3.602519,-2.43334 5.181485,-3.06484 8.81512,-3.52554 2.572752,-0.32619 5.982462,0.0566 8.311072,0.93312 0.97679,0.36766 3.07127,1.45101 4.65439,2.40744 3.37407,2.03842 5.19535,2.73872 7.12267,2.73872 2.72967,0 4.57304,1.84366 3.94367,3.94429 -0.16185,0.54021 -0.60445,1.27272 -0.98356,1.6278 -0.6369,0.59655 -0.88358,0.64383 -3.2456,0.62206 -3.30004,-0.0304 -5.38719,-0.74705 -9.61496,-3.30137 -3.67614,-2.22104 -5.60608,-2.89617 -8.2446,-2.88414 -2.104752,0.01 -3.914772,0.53399 -5.734573,1.66142 -0.652944,0.40452 -2.135204,1.32837 -3.293912,2.05299 -2.554981,1.59782 -4.785436,2.32211 -7.812622,2.53698 -3.862296,0.27416 -7.144378,-0.52614 -10.487739,-2.5573 -0.9685,-0.58838 -1.803806,-1.02689 -1.856235,-0.97446 -0.118228,0.11822 0.668266,2.33652 1.733838,4.89027 1.337442,3.20531 3.46615,6.85403 5.781684,9.9101 l 1.152702,1.52136 2.29964,-0.009 c 2.89317,-0.0109 4.231683,-0.46601 7.326723,-2.49138 3.050083,-1.99595 5.143063,-2.96854 7.431502,-3.45334 3.39958,-0.7202 5.213862,-0.35631 6.187762,1.24108 0.69559,1.14092 0.67627,2.04454 -0.0673,3.14794 -0.76756,1.13899 -1.60016,1.55554 -3.119032,1.56044 -1.99632,0.006 -3.91015,0.75227 -6.956069,2.71083 -2.88069,1.85232 -5.513614,3.1139 -6.498689,3.1139 -1.060106,0 -0.744788,0.49903 1.375427,2.17677 7.210297,5.70554 15.864103,9.38847 24.993733,10.63695 3.54852,0.48526 9.44368,0.49463 12.91742,0.0205 z m -44.838197,-50.7397 c -1.636566,-0.84107 -2.227834,-3.09595 -1.184676,-4.51793 0.631117,-0.86031 1.322513,-1.12356 3.878372,-1.47667 2.612649,-0.36095 3.150555,-0.59467 6.592244,-2.86434 4.100272,-2.70398 5.469155,-3.11196 10.400017,-3.09962 3.80304,0.01 4.05347,0.0439 5.99775,0.82323 1.11596,0.44732 3.14002,1.57052 4.49792,2.49601 3.20192,2.18229 4.44089,2.60604 7.62829,2.60903 2.98713,0.003 4.31196,-0.45723 7.47604,-2.59599 3.85644,-2.60676 6.36615,-3.47451 10.04903,-3.47451 1.74253,0 1.8912,0.0488 2.74201,0.89959 0.76141,0.7614 0.89958,1.08588 0.89958,2.11249 0,0.95158 -0.15676,1.3864 -0.7276,2.01812 -0.64919,0.71844 -1.00528,0.84646 -3.30426,1.18788 -2.77377,0.41193 -3.80916,0.84224 -6.68376,2.77776 -2.54667,1.71471 -3.7248,2.27964 -6.13029,2.93958 -1.75676,0.48196 -2.5262,0.5461 -5.1126,0.42619 -4.23497,-0.19635 -6.67506,-1.09565 -10.58524,-3.90119 -2.34655,-1.68365 -3.95511,-2.19749 -6.87916,-2.19749 -3.001882,0 -4.701312,0.55889 -7.125128,2.3432 -0.870225,0.64062 -2.391276,1.57066 -3.380115,2.06676 -3.028067,1.51917 -7.498206,2.22459 -9.048424,1.4279 z M 41.219239,159.0819 c -2.217825,-0.59689 -3.865865,-1.39475 -6.244133,-3.02298 -3.05537,-2.09179 -4.032819,-2.48005 -7.068816,-2.80785 -1.740877,-0.18797 -2.058523,-0.30939 -2.706426,-1.03452 -1.348135,-1.50882 -1.304827,-3.00094 0.125889,-4.33743 0.840113,-0.78478 0.842738,-0.78528 3.490575,-0.65643 3.244116,0.15786 5.266857,0.86665 8.514419,2.98352 3.525007,2.29771 4.535135,2.74545 6.847947,3.03532 1.157272,0.14504 2.417434,0.3919 2.800359,0.54857 1.672085,0.68412 2.04716,3.57665 0.645533,4.97828 -0.589541,0.58954 -0.942405,0.69161 -2.599449,0.75196 -1.259039,0.0459 -2.565722,-0.10468 -3.805898,-0.43844 z"
       id="path7" /></g></svg>
