<?xml version="1.0" encoding="UTF-8" standalone="no"?>
<!-- Created with Inkscape (http://www.inkscape.org/) -->

<svg
   width="102.64234mm"
   height="248.19789mm"
   viewBox="0 0 102.64234 248.19789"
   version="1.1"
   id="svg1"
   xml:space="preserve"
   xmlns="http://www.w3.org/2000/svg"
   xmlns:svg="http://www.w3.org/2000/svg"><defs
     id="defs1" /><g
     id="layer1"
     transform="translate(-55.435939,-23.800717)"><path
       style="fill:#303030;fill-opacity:1;stroke-width:0.8;stroke-dasharray:none"
       d="M 88.19986,271.80162 C 73.93159,269.19596 62.46941,259.58957 57.6972,246.23749 c -4.32559,-12.10245 -2.36232,-25.71393 5.17765,-35.89707 0.95824,-1.29416 3.20509,-3.74508 4.99299,-5.44648 l 3.25073,-3.09346 0.17639,-79.57297 c 0,0 0.17639,-76.812962 0.17639,-79.572974 0,-2.760012 1.207333,-6.589642 6.8762,-12.21339 2.96847,-2.94484 6.79395,-5.12567 10.74861,-6.127549 2.69931,-0.68384 8.26496,-0.68384 10.96427,0 9.63599,2.441201 17.62481,11.126747 17.62481,18.340939 0,7.214192 0.17639,79.578324 0.17639,79.578324 l 0.17639,79.57832 3.11968,2.95302 c 5.1323,4.85809 8.19319,9.40807 10.30622,15.32006 7.65127,21.40733 -4.56846,44.68375 -26.69273,50.84495 -2.82078,0.78553 -4.17963,0.94101 -9.13456,1.04516 -3.20146,0.0673 -6.54801,-0.0104 -7.43677,-0.17275 z m 10.96455,-9.56328 c 11.46591,-1.83921 20.97719,-10.43494 24.04797,-21.73314 1.0523,-3.87169 1.06115,-10.79892 0.0187,-14.62831 -1.95593,-7.18486 -6.5608,-13.29167 -13.39512,-17.76411 l -1.4993,-0.98116 -0.003,-79.94548 c -0.002,-53.654144 -0.12333,-80.689184 -0.36958,-82.206884 -0.74321,-4.58051 -3.76826,-8.56423 -8.00529,-10.54225 -1.75462,-0.81913 -2.48319,-0.94741 -5.38079,-0.94741 -2.89761,0 -3.62618,0.12828 -5.3808,0.94741 -4.23703,1.97802 -7.26208,5.96174 -8.00529,10.54225 -0.24625,1.5177 -0.3678,28.55274 -0.36958,82.206884 l -0.003,79.94548 -1.49931,0.98116 c -5.15526,3.37365 -8.75617,7.30345 -11.26571,12.29469 -2.1504,4.27693 -2.85654,7.36564 -2.87392,12.57068 -0.0218,6.52048 1.33341,11.06041 4.9134,16.46035 6.32236,9.53644 17.82903,14.60296 29.06998,12.79984 z m 28.72925,-73.46426 c -0.097,-0.2528 -0.13171,-2.51498 -0.0771,-5.02708 l 0.0992,-4.56746 15.08125,-0.092 15.08125,-0.092 v 5.11906 5.11907 h -15.00412 c -12.00269,0 -15.03941,-0.0919 -15.18051,-0.45963 z m 0.0809,-39.99222 c -0.12935,-0.12935 -0.23518,-2.43123 -0.23518,-5.11528 v -4.88009 h 15.16944 15.16944 v 5.11527 5.11528 h -14.93425 c -8.21385,0 -15.0401,-0.10583 -15.16945,-0.23518 z m -0.15668,-45.36135 0.0979,-5.027084 15.08125,-0.092 15.08125,-0.092 v 5.119074 5.11906 h -15.17913 -15.17913 z m 0.0757,-35.649214 c -0.097,-0.25279 -0.13171,-2.51498 -0.0771,-5.02708 l 0.0992,-4.56746 15.08125,-0.092 15.08125,-0.092 v 5.11907 5.11906 h -15.00412 c -12.00269,0 -15.03941,-0.0919 -15.18051,-0.45962 z"
       id="path1" /><path
       d="m 89.799606,254.57951 c -4.39805,-0.946 -9.48297,-4.10501 -12.079561,-7.50443 -2.77625,-3.63462 -4.19787,-7.25322 -4.5522,-11.58724 -0.67779,-8.29048 3.87671,-16.24144 11.470741,-20.02487 1.6232,-0.80869 3.25038,-1.47035 3.61597,-1.47035 0.6476,0 0.66471,-1.15298 0.66471,-44.80278 v -44.80278 h 5.29031 5.290317 l 0.0896,44.66534 0.0895,44.66533 1.940277,0.75573 c 3.52321,1.37228 5.08547,2.40319 7.76111,5.12145 4.37175,4.4414 6.25189,9.36838 5.87206,15.38799 -0.21868,3.46564 -0.76216,5.55531 -2.18126,8.38687 -2.30138,4.59197 -6.36834,8.26376 -11.27552,10.17994 -2.431874,0.94961 -3.358934,1.11805 -6.702774,1.21785 -2.13431,0.0637 -4.51628,-0.0209 -5.29327,-0.18805 z"
       style="fill:#dd6758;fill-opacity:1"
       id="path1-6" /></g></svg>
